# xmcd
#
# Track frame offsets:
#   150
#   8505
#   18668
#   26395
#   34513
#   46381
#   57179
#   67316
#   77108
#   86329
#   97328
#   109339
#   118336
#   128199
#   137401
#   148523
#
# Disc length: 2209 seconds
#
# Revision: 0
# Processed by: cddbd v1.5.2PL0 Copyright (c) Steve Scherf et al.
# Submitted via: uFREEDB ActiveX Control 1.5
#
DISCID=da089f10
DTITLE=JOHNNY CASH - THE GREATEST SONGS CD2
DYEAR=1900
DGENRE=Country
TTITLE0=COUNTRY BOY
TTITLE1=STRAIGHT AS IN LOVE
TTITLE2=IF THE GOOD LORD´S WILLING
TTITLE3=I CAN´T HELP IT
TTITLE4=DOIN´ MY TIME
TTITLE5=JUST THOUGHT YOU´D LIKE TO KNOW
TTITLE6=I COULD NEVER BE ASHAMED OF YOU
TTITLE7=ROCK ISLAND LINE
TTITLE8=LUTHER PLAYED THE BOOGIE
TTITLE9=LOVED YOU BECAUSE
TTITLE10=YOU´RE THE NEAREST THING TO HEAVEN
TTITLE11=WRECK OF THE OLD 97
TTITLE12=BORN TO LOSE
TTITLE13=BLUE TRAIN
TTITLE14=MEAN EYED CAT
TTITLE15=A BOY NAMED SUE
EXTD=
EXTT0=
EXTT1=
EXTT2=
EXTT3=
EXTT4=
EXTT5=
EXTT6=
EXTT7=
EXTT8=
EXTT9=
EXTT10=
EXTT11=
EXTT12=
EXTT13=
EXTT14=
EXTT15=
PLAYORDER=
